<svg id="Layer_1" data-name="Layer 1" xmlns="http://www.w3.org/2000/svg" viewBox="0 0 1497.13 355.71"><defs><style>.cls-1{fill:#fff;}</style></defs><title>bk_white.text</title><path class="cls-1" d="M.86,275.83H17.68v25.22H51.32V280l16.81-8.41V343.1H51.32V317.87H17.68v21L.86,347.3Z"/><path class="cls-1" d="M165.34,326.28,148.52,343.1H98.07V292.64l16.82-16.81h50.45Zm-25.23,0,8.41-8.41V292.64H123.29l-8.4,8.41v25.23Z"/><path class="cls-1" d="M245.73,313.66V275.83h16.81v79.88l-50.45-50.45V343.1H195.27V263.21Z"/><path class="cls-1" d="M364,275.83l-8.41,16.81H292.48V275.83Zm0,25.22-8.41,16.82H292.48V301.05Zm0,25.23-8.41,16.82H292.48V326.28Z"/><path class="cls-1" d="M414.91,313.66l-25.23-25.22V263.21l33.64,33.64,21-21h25.22l-37.83,37.83v25.23l-16.82,8.41Z"/><path class="cls-1" d="M503.71,343.1l-16.82-16.82V275.83h71.47L550,292.64H503.71v25.23l8.4,8.41h42V343.1Z"/><path class="cls-1" d="M651.36,326.28,634.55,343.1H584.09V292.64l16.82-16.81h50.45Zm-25.22,0,8.41-8.41V292.64H609.32l-8.41,8.41v25.23Z"/><path class="cls-1" d="M748.57,271.62V343.1H731.75V313.66l-16.82,16.82-16.81-16.82v25.23L681.3,347.3V271.62l33.63,33.64Z"/><path class="cls-1" d="M778.5,343.1V275.83h58.86l8.41,16.81L829,309.46l16.81,16.82-8.41,16.82Zm16.82-16.82h25.23l-16.82-16.82,16.82-16.82H795.32Z"/><path class="cls-1" d="M918.59,275.83h16.82v25.22H969V280l16.82-8.41V343.1H969V317.87H935.41v21l-16.82,8.41Z"/><path class="cls-1" d="M1032.61,343.1l-16.81-16.82V275.83h16.81v42l8.41,8.41h25.23V280l16.82-8.41V343.1Z"/><path class="cls-1" d="M1138.23,292.64l-8.41,8.41h50.45v25.23l-16.82,16.82H1108.8l8.41-16.82H1155l8.41-8.41H1113V292.64l16.82-16.81h54.66l-8.41,16.81Z"/><path class="cls-1" d="M1281.68,275.83l-8.41,16.81h-21v46.25l-16.82,8.41V292.64h-25.22V275.83Z"/><path class="cls-1" d="M1324.23,326.28h54.66l-8.41,16.82h-63.07V271.62l16.82,8.41Z"/><path class="cls-1" d="M1476.09,275.83l-8.41,16.81h-63.06V275.83Zm0,25.22-8.41,16.82h-63.06V301.05Zm0,25.23-8.41,16.82h-63.06V326.28Z"/><polygon class="cls-1" points="422.77 0 422.77 188.37 393.02 218.13 268.79 218.13 217.46 166.81 217.46 12.83 268.79 12.83 268.79 141.14 294.46 166.81 371.44 166.81 371.44 25.66 422.77 0"/><path class="cls-1" d="M403.62,218.13v0h0l0,0Z"/><polygon class="cls-1" points="531.92 166.8 647.39 166.8 647.39 183.85 613.12 218.15 403.63 218.15 403.65 218.13 403.62 218.13 557.57 64.14 442.09 64.14 442.09 12.82 685.88 12.82 531.92 166.8"/><polygon class="cls-1" points="906.02 12.82 888.05 30.79 878.42 40.42 752.04 166.8 867.54 166.8 867.54 218.15 623.74 218.15 777.72 64.14 662.22 64.14 662.22 47.12 696.48 12.82 906.02 12.82"/><polygon class="cls-1" points="1093.35 179.64 1093.57 256.84 977.88 141.15 939.37 141.15 939.37 218.15 888.05 218.15 888.05 41.43 916.63 12.82 939.37 12.82 939.37 89.84 952.2 89.84 1029.2 12.82 1106.18 12.82 1016.37 102.65 1093.35 179.64"/><polygon class="cls-1" points="1163.45 0 1112.13 25.67 1112.13 256.84 1163.45 231.17 1163.45 0"/><polygon class="cls-1" points="1300.08 166.81 1233.13 166.81 1233.13 25.67 1181.8 0 1181.8 218.13 1300.08 218.13 1300.08 166.81"/><polygon class="cls-1" points="1497.13 166.81 1471.47 218.13 1383.28 218.13 1408.94 166.81 1497.13 166.81"/><polygon class="cls-1" points="1398.3 166.81 1372.64 218.13 1310.85 218.13 1310.85 0 1362.17 25.66 1362.17 166.81 1398.3 166.81"/><polygon class="cls-1" points="179.63 12.84 179.63 12.83 76.99 115.48 82.81 121.29 97.08 135.57 128.31 166.81 179.63 218.13 180.93 215.53 205.3 166.81 153.98 115.48 205.3 64.15 180.93 15.43 179.63 12.84 179.64 12.83 179.63 12.84"/><polygon class="cls-1" points="117.6 166.81 51.32 166.81 51.32 64.15 117.6 64.15 168.92 12.83 0 12.83 0 218.13 168.92 218.13 117.6 166.81"/></svg>